<svg xmlns="http://www.w3.org/2000/svg" width="256" height="256" viewBox="0 0 100 100"><path fill="#82a284" d="M45.75 63.03L45.75 63.03L37.44 63.03Q37.04 65.99 36.05 68.53Q35.06 71.07 33.40 72.91L33.40 72.91Q31.74 74.80 29.34 75.83Q26.93 76.86 23.65 76.86L23.65 76.86Q20.64 76.86 18.40 75.90Q16.15 74.93 14.49 73.22L14.49 73.22Q12.83 71.56 11.75 69.36Q10.67 67.16 10.00 64.64L10.00 64.64Q9.32 62.17 9.03 59.59Q8.74 57.01 8.74 54.58L8.74 54.58L8.74 45.37Q8.74 42.95 9.03 40.36Q9.32 37.78 10.00 35.31L10.00 35.31Q10.67 32.84 11.77 30.64Q12.87 28.44 14.53 26.78L14.53 26.78Q16.15 25.11 18.42 24.15Q20.69 23.18 23.65 23.18L23.65 23.18Q26.93 23.18 29.34 24.28Q31.74 25.38 33.40 27.31L33.40 27.31Q35.06 29.25 36.05 31.81Q37.04 34.37 37.44 37.33L37.44 37.33L45.75 37.33Q45.22 32.66 43.53 28.80Q41.85 24.93 39.06 22.15L39.06 22.15Q36.28 19.41 32.41 17.90Q28.55 16.40 23.65 16.40L23.65 16.40Q19.57 16.40 16.29 17.54Q13.01 18.69 10.45 20.71L10.45 20.71Q7.84 22.73 5.98 25.50Q4.11 28.26 2.90 31.49L2.90 31.49Q1.64 34.73 1.04 38.28Q0.43 41.82 0.38 45.46L0.38 45.46L0.38 54.58Q0.43 58.22 1.04 61.77Q1.64 65.32 2.90 68.55L2.90 68.55Q4.11 71.79 5.98 74.53Q7.84 77.27 10.45 79.29L10.45 79.29Q13.01 81.31 16.31 82.46Q19.61 83.60 23.65 83.60L23.65 83.60Q28.37 83.60 32.21 82.10Q36.05 80.59 38.88 77.85L38.88 77.85Q41.67 75.16 43.42 71.36Q45.17 67.56 45.75 63.03ZM91.75 82.70L99.62 82.70L99.62 17.30L91.75 17.30L91.75 45.42L64.94 45.42L64.94 17.30L57.12 17.30L57.12 82.70L64.94 82.70L64.94 52.47L91.75 52.47L91.75 82.70Z"></path></svg>